<?xml version="1.0" standalone="no"?>
<!DOCTYPE svg PUBLIC "-//W3C//DTD SVG 20010904//EN"
 "http://www.w3.org/TR/2001/REC-SVG-20010904/DTD/svg10.dtd">
<svg version="1.0" xmlns="http://www.w3.org/2000/svg"
 width="512.000000pt" height="512.000000pt" viewBox="0 0 512.000000 512.000000"
 preserveAspectRatio="xMidYMid meet">
<metadata>
Created by potrace 1.14, written by Peter Selinger 2001-2017
</metadata>
<g transform="translate(0.000000,512.000000) scale(0.100000,-0.100000)"
fill="#000000" stroke="none">
<path d="M1040 3963 c0 -1 22 -23 50 -49 66 -61 104 -123 131 -214 l22 -75
-12 -570 c-18 -886 -35 -1293 -62 -1520 -8 -68 -19 -105 -42 -150 -39 -72
-118 -160 -192 -210 -30 -21 -53 -40 -51 -42 2 -3 64 0 138 6 264 21 638 41
920 47 l287 7 -92 97 c-106 112 -211 255 -261 355 -50 100 -60 214 -53 609 4
284 33 716 47 716 8 0 217 -402 284 -545 30 -66 71 -165 91 -220 37 -100 104
-348 125 -460 19 -98 17 -95 64 -95 24 0 57 3 74 6 38 8 27 -19 190 466 66
194 141 409 167 478 45 121 238 525 269 565 14 18 15 -20 16 -410 0 -605 -23
-1027 -64 -1145 -19 -54 -108 -195 -182 -288 -34 -42 -61 -78 -60 -79 2 -2
173 4 382 12 208 9 525 21 703 28 l325 12 -82 68 c-94 77 -228 227 -265 296
-37 68 -46 143 -57 488 -10 312 1 1021 20 1286 11 168 30 208 154 333 l91 91
-45 -4 c-25 -2 -146 -8 -270 -13 -124 -6 -306 -15 -405 -20 -99 -5 -262 -10
-362 -10 l-182 0 -7 -37 c-22 -130 -88 -448 -113 -545 -17 -64 -62 -205 -101
-314 -40 -110 -81 -226 -93 -259 l-21 -60 -52 110 c-203 420 -437 963 -507
1174 l-31 94 -443 -4 c-244 -2 -443 -5 -443 -6z"/>
</g>
</svg>
